<?xml version="1.0" encoding="UTF-8" standalone="no"?>
<svg
   xmlns:dc="http://purl.org/dc/elements/1.1/"
   xmlns:cc="http://creativecommons.org/ns#"
   xmlns:rdf="http://www.w3.org/1999/02/22-rdf-syntax-ns#"
   xmlns:svg="http://www.w3.org/2000/svg"
   xmlns="http://www.w3.org/2000/svg"
   xmlns:sodipodi="http://sodipodi.sourceforge.net/DTD/sodipodi-0.dtd"
   xmlns:inkscape="http://www.inkscape.org/namespaces/inkscape"
   sodipodi:docname="hex_brglm2.svg"
   inkscape:version="1.0beta2 (2b71d25, 2019-12-03)"
   id="svg823"
   version="1.1"
   viewBox="0 0 200 200"
   height="200mm"
   width="200mm">
  <defs
     id="defs817">
    <clipPath
       id="clip1">
      <path
         id="path399"
         d="M 208 59.039062 L 210 59.039062 L 210 430.558594 L 208 430.558594 Z M 208 59.039062 " />
    </clipPath>
    <clipPath
       id="clip2">
      <path
         id="path402"
         d="M 304 59.039062 L 306 59.039062 L 306 430.558594 L 304 430.558594 Z M 304 59.039062 " />
    </clipPath>
    <clipPath
       id="clip1-5">
      <path
         id="path599"
         d="M 207 59.039062 L 211 59.039062 L 211 430.558594 L 207 430.558594 Z M 207 59.039062 " />
    </clipPath>
    <clipPath
       id="clip2-5">
      <path
         id="path602"
         d="M 303 59.039062 L 307 59.039062 L 307 430.558594 L 303 430.558594 Z M 303 59.039062 " />
    </clipPath>
  </defs>
  <sodipodi:namedview
     inkscape:document-rotation="0"
     inkscape:measure-end="-145.462,665.691"
     inkscape:measure-start="-150,670"
     inkscape:window-maximized="0"
     inkscape:window-y="28"
     inkscape:window-x="74"
     inkscape:window-height="1264"
     inkscape:window-width="2377"
     showguides="true"
     inkscape:showpageshadow="false"
     borderlayer="false"
     inkscape:pagecheckerboard="false"
     showgrid="true"
     inkscape:current-layer="text448"
     inkscape:document-units="mm"
     inkscape:cy="377.95276"
     inkscape:cx="320.83077"
     inkscape:zoom="0.84906002"
     inkscape:pageshadow="2"
     inkscape:pageopacity="0.0"
     borderopacity="1.0"
     bordercolor="#666666"
     pagecolor="#ffffff"
     id="base">
    <inkscape:grid
       id="grid1405"
       type="xygrid" />
  </sodipodi:namedview>
  <metadata
     id="metadata820">
    <rdf:RDF>
      <cc:Work
         rdf:about="">
        <dc:format>image/svg+xml</dc:format>
        <dc:type
           rdf:resource="http://purl.org/dc/dcmitype/StillImage" />
        <dc:title />
      </cc:Work>
    </rdf:RDF>
  </metadata>
  <g
     transform="translate(0,-97)"
     id="layer1"
     inkscape:groupmode="layer"
     inkscape:label="Layer 1">
    <g
       id="g2575">
      <g
         id="surface6"
         transform="matrix(0.35277778,0,0,0.35277778,3.259059,106.00956)">
        <rect
           id="rect607"
           style="fill:#ffffff;fill-opacity:1;stroke:none"
           height="504"
           width="504"
           y="0"
           x="0" />
        <path
           id="path609"
           d="m 74.398438,416.80078 h 1.15625 l 0.382812,-0.004 h 7.6875 l 0.382812,-0.004 h 3.078126 l 0.382812,-0.004 h 1.921875 l 0.382813,-0.004 h 1.15625 l 0.382812,-0.004 h 0.769531 l 0.382813,-0.004 h 0.769531 l 0.386719,-0.004 h 0.382812 l 0.382813,-0.004 h 0.769531 l 0.386719,-0.004 0.382812,-0.004 h 0.382813 l 0.386718,-0.004 h 0.382813 l 0.386719,-0.004 0.765625,-0.008 h 0.386719 L 99,416.74219 l 0.386719,-0.004 0.765621,-0.008 0.38672,-0.004 0.38282,-0.004 0.38671,-0.004 0.38282,-0.008 0.38281,-0.004 0.38672,-0.004 0.38281,-0.008 0.38672,-0.004 0.76562,-0.0156 0.38672,-0.004 0.38282,-0.008 0.38671,-0.008 0.38282,-0.008 0.38281,-0.0117 0.38672,-0.008 0.38281,-0.008 0.38672,-0.0117 0.76562,-0.0234 0.38672,-0.0117 0.38282,-0.0117 0.38671,-0.0117 0.38282,-0.0156 0.38281,-0.0117 0.38672,-0.0156 0.38281,-0.0156 0.38672,-0.0156 0.38281,-0.0195 0.38281,-0.0156 0.38672,-0.0195 0.38282,-0.0195 0.38671,-0.0234 0.38282,-0.0195 0.38281,-0.0234 0.38672,-0.0234 0.38281,-0.0273 0.38672,-0.0274 0.76562,-0.0547 0.38672,-0.0312 0.38282,-0.0312 0.38671,-0.0312 0.38282,-0.0351 0.38281,-0.0391 0.38672,-0.0352 0.38281,-0.0391 0.38672,-0.043 0.38281,-0.043 0.38281,-0.0469 0.38672,-0.0469 0.38282,-0.0469 0.38671,-0.0547 0.38282,-0.0508 0.38281,-0.0586 0.38672,-0.0586 0.38281,-0.0586 0.38672,-0.0625 0.38281,-0.0664 0.38672,-0.0703 0.38281,-0.0703 0.38282,-0.0781 0.38671,-0.0742 0.38282,-0.082 0.38672,-0.0859 0.38281,-0.0859 0.38281,-0.0937 0.38672,-0.0937 0.38281,-0.0976 0.38672,-0.10547 0.38281,-0.10547 0.38282,-0.11328 0.38671,-0.11328 0.38282,-0.1211 0.38671,-0.125 0.38282,-0.1289 0.38281,-0.13282 0.38672,-0.14062 0.38281,-0.14453 0.38672,-0.15235 0.38281,-0.15234 0.38281,-0.16406 0.38672,-0.16797 0.38282,-0.17188 0.38671,-0.17968 0.38282,-0.1875 0.38281,-0.19141 0.38672,-0.19922 0.38281,-0.20703 0.38672,-0.21484 0.38281,-0.22266 0.38281,-0.22656 0.38672,-0.23828 0.38282,-0.2461 0.38671,-0.25 0.38282,-0.26562 0.38281,-0.26953 0.38672,-0.27735 0.38281,-0.28906 0.38672,-0.30078 0.38281,-0.30469 0.38281,-0.32031 0.38672,-0.32813 0.38282,-0.33593 0.38671,-0.35157 0.38282,-0.35937 0.38281,-0.37109 0.38672,-0.37891 0.38281,-0.39453 0.38672,-0.40625 0.38281,-0.41797 0.38281,-0.42969 0.38672,-0.44531 0.38282,-0.45313 0.38671,-0.46875 0.38282,-0.48437 0.38281,-0.49609 0.38672,-0.51172 0.38281,-0.52344 0.38672,-0.53906 0.38281,-0.55469 0.38281,-0.57031 0.38672,-0.58203 0.38282,-0.60157 0.38671,-0.61718 0.38282,-0.62891 0.38281,-0.64844 0.38672,-0.66797 0.38281,-0.67968 0.38672,-0.69922 0.38281,-0.71875 0.38281,-0.73438 0.38672,-0.7539 0.38282,-0.76954 0.38671,-0.78906 0.38282,-0.80859 0.38281,-0.82813 0.38672,-0.84375 0.38281,-0.86718 0.38672,-0.88282 0.38281,-0.90625 0.38672,-0.92578 0.38281,-0.94531 0.38282,-0.96484 0.38671,-0.98438 0.38282,-1.00781 0.38672,-1.02735 0.38281,-1.05078 0.38281,-1.07031 0.38672,-1.09375 0.38281,-1.11328 0.38672,-1.13281 0.38281,-1.16016 0.38282,-1.17578 0.38671,-1.20313 0.38282,-1.22265 0.38672,-1.2461 0.38281,-1.26953 0.38281,-1.28906 0.38672,-1.3125 0.38281,-1.33594 0.38672,-1.35547 0.38281,-1.3789 0.38282,-1.40235 0.38671,-1.42578 0.38282,-1.44531 0.38672,-1.47266 0.38281,-1.48828 0.38281,-1.51562 0.38672,-1.53516 0.38281,-1.55859 0.38672,-1.57813 0.38281,-1.60156 0.38282,-1.62109 0.38671,-1.64453 0.38282,-1.66407 0.38672,-1.68359 0.38281,-1.70703 0.38281,-1.72656 0.38672,-1.7461 0.38281,-1.76562 0.38672,-1.78516 0.38281,-1.80469 0.38282,-1.82422 0.38671,-1.84375 0.38282,-1.85937 0.38672,-1.875 0.38281,-1.89453 0.38281,-1.91406 0.38672,-1.92579 0.38281,-1.9414 0.38672,-1.96094 0.38281,-1.97266 0.38282,-1.98828 0.38671,-2 0.38282,-2.01562 0.38672,-2.02735 0.38281,-2.03906 0.38281,-2.04687 0.38672,-2.0625 0.38281,-2.07032 0.38672,-2.07812 0.38281,-2.08984 0.38282,-2.09375 0.38671,-2.10547 0.38282,-2.10938 0.38672,-2.11328 0.76562,-4.24219 0.38672,-2.1289 0.38281,-2.12891 0.38672,-2.12891 0.76563,-4.26562 0.38671,-2.12891 0.38282,-2.125 0.38672,-2.125 0.38281,-2.12109 0.38281,-2.11719 0.38672,-2.11328 0.38281,-2.10156 0.38672,-2.09766 0.38281,-2.08594 0.38282,-2.07812 0.38671,-2.07031 0.38282,-2.05469 0.38672,-2.04297 0.38281,-2.03125 0.38672,-2.01562 0.38281,-2 0.38281,-1.98438 0.38672,-1.96875 0.38281,-1.94922 0.38672,-1.92969 0.38281,-1.90625 0.38282,-1.88671 0.38672,-1.86719 0.38281,-1.83985 0.38672,-1.82031 0.38281,-1.79297 0.38281,-1.76562 0.38672,-1.73828 0.38281,-1.71094 0.38672,-1.67969 0.38281,-1.65234 0.38282,-1.6211 0.38672,-1.58984 0.38281,-1.55859 0.38672,-1.51953 0.38281,-1.49219 0.38281,-1.45313 0.38672,-1.41797 0.38281,-1.3789 0.38672,-1.34375 0.38281,-1.30469 0.38282,-1.26172 0.38672,-1.22656 0.38281,-1.18359 0.38672,-1.14454 0.38281,-1.10156 0.38281,-1.05859 0.38672,-1.01563 0.38281,-0.96875 0.38672,-0.92968 0.38281,-0.87891 0.38282,-0.83984 0.38672,-0.78907 0.38281,-0.74218 0.38672,-0.69922 0.38281,-0.64844 0.38281,-0.60156 0.38672,-0.55078 0.38281,-0.50391 0.38672,-0.45703 0.38281,-0.40625 0.38282,-0.35938 0.38672,-0.30859 0.38281,-0.25781 0.38672,-0.20703 0.38281,-0.15625 0.38281,-0.10938 0.38672,-0.0586 0.38281,-0.008 0.38672,0.043 0.38281,0.0937 0.38282,0.14453 0.38672,0.19141 0.38281,0.24219 0.38672,0.29297 0.38281,0.34375 0.38281,0.39062 0.38672,0.44141 0.38281,0.49219 0.38672,0.53906 0.38281,0.58594 0.38282,0.63281 0.38672,0.68359 0.38281,0.73047 0.38672,0.77734 0.38281,0.82032 0.38281,0.86718 0.38672,0.91407 0.38281,0.95703 0.38672,1.0039 0.38281,1.04688 0.38282,1.08594 0.38672,1.13281 0.38281,1.17187 0.38672,1.21094 0.38281,1.25391 0.38672,1.29297 0.38281,1.33203 0.38281,1.36719 0.38672,1.41015 0.38281,1.44141 0.38672,1.47656 0.38282,1.51563 0.38281,1.54296 0.38672,1.58204 0.38281,1.60937 0.38672,1.64453 0.38281,1.67188 0.38281,1.70312 0.38672,1.73047 0.38281,1.75781 0.38672,1.78516 0.38282,1.80859 0.38281,1.83594 0.38672,1.85938 0.38281,1.8789 0.38672,1.90235 0.38281,1.92578 0.38281,1.9414 0.38672,1.96094 0.38281,1.98047 0.38672,1.99609 0.38282,2.01172 0.38281,2.02344 0.38672,2.04297 0.38281,2.05078 0.38672,2.06641 0.38281,2.07421 0.38281,2.08594 0.38672,2.09375 0.38281,2.10156 0.38672,2.10938 0.38282,2.11328 0.38281,2.12109 0.38672,2.1211 0.38281,2.1289 0.38672,2.12891 0.38281,2.12891 0.38281,2.13281 0.38672,2.12891 0.38281,2.13281 0.38672,2.125 0.38282,2.125 0.38281,2.12109 0.38672,2.11719 0.38281,2.10937 0.38672,2.10547 0.38281,2.09766 0.38281,2.09375 0.38672,2.08203 0.38281,2.07031 0.38672,2.06641 0.38282,2.05078 0.38281,2.04297 0.38672,2.03125 0.38281,2.01562 0.38672,2.00782 0.38281,1.99218 0.38281,1.97657 0.38672,1.96093 0.38281,1.94922 0.76954,3.84766 0.38281,1.90234 0.38672,1.88282 0.38281,1.86328 0.38672,1.84765 0.38281,1.82813 0.38281,1.8125 0.38672,1.78906 0.38281,1.77344 0.38672,1.75 0.38282,1.73437 0.38281,1.71094 0.38672,1.69141 0.38281,1.67187 0.38672,1.64844 0.38281,1.62891 0.38672,1.60937 0.38281,1.58594 0.38281,1.5625 0.38672,1.54297 0.38282,1.51953 0.38671,1.5 0.38282,1.47265 0.38281,1.45313 0.38672,1.43359 0.38281,1.41016 0.38672,1.38672 0.38281,1.36328 0.38281,1.33984 0.38672,1.32032 0.38282,1.29687 0.38671,1.27344 0.38282,1.2539 0.38281,1.23047 0.38672,1.20703 0.38281,1.1836 0.38672,1.16406 0.38281,1.14453 0.38281,1.11719 0.38672,1.10156 0.38282,1.07422 0.38671,1.05859 0.38282,1.03125 0.38281,1.01563 0.38672,0.99219 0.38281,0.97265 0.38672,0.94922 0.38281,0.9336 0.38281,0.91015 0.38672,0.89063 0.38282,0.87109 0.38671,0.85156 0.38282,0.83203 0.38281,0.8125 0.38672,0.79688 0.38281,0.77734 0.38672,0.75782 0.38281,0.73828 0.38281,0.72265 0.38672,0.70313 0.38282,0.6875 0.38671,0.67187 0.38282,0.65235 0.38281,0.63672 0.38672,0.62109 0.38281,0.60547 0.38672,0.58984 0.38281,0.57422 0.38281,0.55859 0.38672,0.54297 0.38282,0.52735 0.38671,0.51562 0.38282,0.5 0.38281,0.48828 0.38672,0.47266 0.38281,0.46094 0.38672,0.44531 0.38281,0.43359 0.38281,0.42188 0.38672,0.41015 0.38282,0.39844 0.38671,0.38281 0.38282,0.375 0.38281,0.36329 0.38672,0.35156 0.38281,0.34375 0.38672,0.32812 0.38281,0.32032 0.38281,0.3125 0.38672,0.30078 0.38282,0.29297 0.38671,0.28125 0.38282,0.27343 0.38281,0.26563 0.38672,0.2539 0.38281,0.25 0.38672,0.23829 0.38281,0.23046 0.38672,0.22266 0.38281,0.21875 0.38282,0.20703 0.38671,0.20313 0.38282,0.19531 0.38672,0.1875 0.38281,0.17969 0.38281,0.17578 0.38672,0.17187 0.38281,0.16016 0.38672,0.16016 0.38281,0.15234 0.38282,0.14453 0.38671,0.14063 0.38282,0.13671 0.38672,0.12891 0.38281,0.12891 0.38281,0.12109 0.38672,0.11719 0.38281,0.10937 0.38672,0.10938 0.38281,0.10547 0.38282,0.0976 0.38671,0.0977 0.38282,0.0937 0.38672,0.0859 0.38281,0.0859 0.38281,0.082 0.38672,0.082 0.38281,0.0742 0.38672,0.0742 0.38281,0.0664 0.38282,0.0703 0.38671,0.0625 0.38282,0.0625 0.38672,0.0586 0.38281,0.0586 0.38281,0.0508 0.38672,0.0547 0.38281,0.0508 0.38672,0.0469 0.38281,0.043 0.38282,0.0469 0.38671,0.0391 0.38282,0.043 0.38672,0.0391 0.76562,0.0703 0.38672,0.0351 0.38281,0.0312 0.38672,0.0312 0.76563,0.0547 0.38671,0.0273 0.38282,0.0274 0.38672,0.0234 0.76562,0.0469 0.38672,0.0195 0.38281,0.0195 0.38672,0.0195 0.38281,0.0195 0.38282,0.0156 0.38671,0.0195 0.38282,0.0156 0.38672,0.0156 0.38281,0.0117 0.38281,0.0156 0.38672,0.0117 0.38281,0.0117 0.38672,0.0156 0.38281,0.008 0.38282,0.0117 0.38671,0.0117 0.38282,0.008 0.38672,0.0117 0.76562,0.0156 0.38672,0.008 0.38281,0.008 0.38672,0.008 0.38281,0.008 0.38282,0.004 0.38671,0.008 0.38282,0.004 0.38672,0.008 0.38281,0.004 0.38672,0.004 0.38281,0.004 0.38281,0.008 0.38672,0.004 0.38281,0.004 0.38672,0.004 0.38281,0.004 h 0.38282 l 0.38672,0.004 0.38281,0.004 0.38672,0.004 h 0.38281 l 0.38281,0.004 0.38672,0.004 h 0.38281 l 0.38672,0.004 h 0.38281 l 0.38282,0.004 h 0.38672 l 0.38281,0.004 h 0.38672 l 0.38281,0.004 h 0.76953 l 0.38281,0.004 h 0.76953 l 0.38282,0.004 h 1.53906 l 0.38281,0.004 h 1.53906 l 0.38282,0.004 h 3.07812 l 0.38281,0.004 h 7.6875 l 0.38282,0.004 h 116.46875 z m 0,0"
           style="fill:#0099de;fill-opacity:0.301961;fill-rule:nonzero;stroke:none"
           inkscape:connector-curvature="0" />
        <g
           id="g613"
           clip-rule="nonzero"
           clip-path="url(#clip1-5)">
          <path
             id="path611"
             d="M 208.80078,430.55859 V 59.039062"
             style="fill:none;stroke:#0099de;stroke-width:3;stroke-linecap:round;stroke-linejoin:round;stroke-miterlimit:10;stroke-dasharray:3, 9;stroke-opacity:0.301961"
             inkscape:connector-curvature="0" />
        </g>
        <path
           id="path615"
           d="m 74.398438,416.80078 h 69.960932 l 0.38282,-0.004 h 9.60937 l 0.38672,-0.004 h 3.84375 l 0.38281,-0.004 h 2.30469 l 0.38672,-0.004 h 1.53516 l 0.38671,-0.004 h 1.15235 l 0.38281,-0.004 h 0.76953 l 0.38672,-0.004 h 0.76563 l 0.38671,-0.004 h 0.76954 l 0.38281,-0.004 h 0.38281 l 0.38672,-0.004 h 0.38281 l 0.38672,-0.004 h 0.38281 l 0.38282,-0.004 h 0.38671 l 0.38282,-0.004 h 0.38672 l 0.76562,-0.008 h 0.38672 l 0.38281,-0.004 0.38672,-0.004 0.76563,-0.008 0.38671,-0.004 h 0.38282 l 0.38672,-0.004 0.76562,-0.008 0.38672,-0.008 0.38281,-0.004 0.38672,-0.004 0.76563,-0.008 0.38671,-0.008 0.38282,-0.004 0.38672,-0.008 0.38281,-0.004 0.38281,-0.008 0.38672,-0.008 0.38281,-0.004 0.38672,-0.008 0.76563,-0.0156 0.38671,-0.008 0.38282,-0.008 0.38672,-0.0117 0.76562,-0.0156 0.38672,-0.0117 0.38281,-0.008 0.38672,-0.0117 0.76563,-0.0234 0.38671,-0.0117 0.38282,-0.0117 0.38672,-0.0156 0.38281,-0.0117 0.38672,-0.0156 0.38281,-0.0117 0.38281,-0.0156 0.38672,-0.0156 0.38281,-0.0195 0.38672,-0.0156 0.38281,-0.0195 0.38282,-0.0156 0.38672,-0.0195 0.38281,-0.0195 0.38672,-0.0234 0.38281,-0.0195 0.38281,-0.0234 0.38672,-0.0234 0.38281,-0.0234 0.38672,-0.0234 0.76563,-0.0547 0.38672,-0.0273 0.38281,-0.0274 0.38672,-0.0312 0.76562,-0.0625 0.38672,-0.0312 0.38281,-0.0351 0.38672,-0.0352 0.38281,-0.0391 0.38282,-0.0352 0.38672,-0.043 0.38281,-0.0391 0.38672,-0.043 0.38281,-0.043 0.38281,-0.0469 0.38672,-0.0469 0.38281,-0.0469 0.38672,-0.0508 0.38281,-0.0508 0.38282,-0.0547 0.38672,-0.0547 0.38281,-0.0586 0.38672,-0.0586 0.76562,-0.125 0.38672,-0.0625 0.38281,-0.0703 0.38672,-0.0703 0.38281,-0.0703 0.38282,-0.0742 0.38672,-0.0781 0.38281,-0.0781 0.38672,-0.082 0.38281,-0.082 0.38281,-0.0859 0.38672,-0.0899 0.38281,-0.0937 0.38672,-0.0937 0.38281,-0.0976 0.38282,-0.10157 0.38672,-0.10546 0.38281,-0.10547 0.38672,-0.11328 0.38281,-0.11329 0.38281,-0.11718 0.38672,-0.1211 0.38281,-0.125 0.38672,-0.1289 0.38281,-0.12891 0.38282,-0.13672 0.38672,-0.14062 0.38281,-0.14453 0.38672,-0.14454 0.38281,-0.15234 0.38281,-0.15625 0.38672,-0.16406 0.38281,-0.16406 0.38672,-0.16797 0.38281,-0.17578 0.38282,-0.17969 0.38672,-0.1836 0.38281,-0.1875 0.38672,-0.19531 0.38281,-0.19922 0.38672,-0.20703 0.38281,-0.21094 0.38281,-0.21484 0.38672,-0.22266 0.38281,-0.22656 0.38672,-0.23047 0.76563,-0.48437 0.38672,-0.25391 0.38281,-0.25781 0.38672,-0.26172 0.38281,-0.27344 0.38281,-0.27734 0.38672,-0.28516 0.38281,-0.28906 0.38672,-0.30078 0.38282,-0.30469 0.38281,-0.3125 0.38672,-0.32031 0.38281,-0.32813 0.38672,-0.33593 0.38281,-0.34375 0.38281,-0.35157 0.38672,-0.35937 0.38281,-0.36719 0.38672,-0.375 0.38282,-0.38281 0.38281,-0.39453 0.38672,-0.39844 0.38281,-0.41016 0.38672,-0.42187 0.38281,-0.42578 0.38281,-0.4375 0.38672,-0.44531 0.38281,-0.45704 0.38672,-0.46484 0.38282,-0.47656 0.38281,-0.48438 0.38672,-0.49609 0.38281,-0.50391 0.38672,-0.51172 0.38281,-0.52734 0.38281,-0.53516 0.38672,-0.54687 0.38281,-0.55469 0.38672,-0.5664 0.38282,-0.57813 0.38281,-0.58984 0.38672,-0.59766 0.38281,-0.60937 0.38672,-0.6211 0.38281,-0.63672 0.38281,-0.64062 0.38672,-0.65625 0.38281,-0.66797 0.38672,-0.67969 0.38282,-0.6914 0.38281,-0.69922 0.38672,-0.71485 0.38281,-0.72656 0.38672,-0.73828 0.38281,-0.75 0.38281,-0.76172 0.38672,-0.77344 0.38281,-0.78906 0.38672,-0.79687 0.38282,-0.8125 0.38281,-0.82422 0.38672,-0.83594 0.38281,-0.84766 0.38672,-0.85937 0.38281,-0.875 0.38281,-0.88281 0.38672,-0.89844 0.38281,-0.91016 0.38672,-0.92578 0.38282,-0.93359 0.38281,-0.94922 0.38672,-0.96094 0.38281,-0.97266 0.38672,-0.98437 0.38281,-1 0.38672,-1.01172 0.38281,-1.02344 0.38281,-1.03515 0.38672,-1.04688 0.38282,-1.05859 0.38671,-1.07031 0.38282,-1.08594 0.38281,-1.09375 0.38672,-1.10938 0.38281,-1.12109 0.38672,-1.12891 0.38281,-1.14453 0.38281,-1.15234 0.38672,-1.16797 0.38282,-1.17578 0.38671,-1.1875 0.38282,-1.19922 0.38281,-1.21094 0.38672,-1.22265 0.38281,-1.23047 0.38672,-1.24219 0.38281,-1.25 0.38281,-1.26563 0.38672,-1.26953 0.38282,-1.28125 0.38671,-1.29297 0.38282,-1.29687 0.38281,-1.3125 0.38672,-1.31641 0.38281,-1.32812 0.38672,-1.33203 0.38281,-1.34375 0.38281,-1.35157 0.38672,-1.35937 0.38282,-1.36328 0.38671,-1.375 0.38282,-1.37891 0.38281,-1.38281 0.38672,-1.39453 0.38281,-1.39844 0.38672,-1.40234 0.38281,-1.40625 0.38281,-1.41407 0.38672,-1.41796 0.38282,-1.42188 0.38671,-1.42969 0.38282,-1.42968 0.38281,-1.4336 0.38672,-1.43359 0.38281,-1.4375 0.38672,-1.44141 0.38281,-1.4414 0.38281,-1.44532 0.38672,-1.44531 0.38282,-1.44531 0.38671,-1.44531 0.76563,-2.89063 0.38672,-1.44141 0.38281,-1.4414 0.38672,-1.44141 0.76562,-2.875 0.38672,-1.42969 0.38282,-1.42968 0.38671,-1.42578 0.38282,-1.41797 0.38281,-1.41407 0.38672,-1.41015 0.38281,-1.40625 0.38672,-1.39844 0.38281,-1.39062 0.38281,-1.38282 0.38672,-1.3789 0.38282,-1.36719 0.38671,-1.35938 0.38282,-1.35156 0.38281,-1.33984 0.38672,-1.33203 0.38281,-1.32422 0.38672,-1.3086 0.38281,-1.30078 0.38672,-1.28906 0.38281,-1.27344 0.38282,-1.26562 0.38671,-1.25 0.38282,-1.23438 0.38672,-1.22265 0.38281,-1.21094 0.38281,-1.19141 0.38672,-1.17968 0.38281,-1.16016 0.38672,-1.14844 0.38281,-1.1289 0.38282,-1.11329 0.38671,-1.09765 0.38282,-1.07813 0.38672,-1.05859 0.38281,-1.03906 0.38281,-1.02344 0.38672,-1.00391 0.38281,-0.98047 0.38672,-0.96484 0.38281,-0.94141 0.38282,-0.92187 0.38671,-0.89844 0.38282,-0.8789 0.38672,-0.85938 0.38281,-0.83203 0.38281,-0.8125 0.38672,-0.78906 0.38281,-0.76563 0.38672,-0.74219 0.38281,-0.71484 0.38282,-0.69531 0.38671,-0.66797 0.38282,-0.64844 0.38672,-0.61719 0.38281,-0.59375 0.38281,-0.57031 0.38672,-0.54297 0.38281,-0.51953 0.38672,-0.48828 0.38281,-0.46484 0.38282,-0.44141 0.38671,-0.41016 0.38282,-0.38671 0.38672,-0.35547 0.38281,-0.33203 0.38281,-0.30469 0.38672,-0.27344 0.38281,-0.25 0.38672,-0.21875 0.38281,-0.19531 0.38282,-0.16406 0.38671,-0.13672 0.38282,-0.10938 0.38672,-0.082 0.38281,-0.0547 0.38281,-0.0234 0.38672,0.004 0.38281,0.0312 0.38672,0.0586 0.38281,0.0859 0.38282,0.11328 0.38671,0.14454 0.38282,0.17187 0.38672,0.19531 0.38281,0.22657 0.38281,0.2539 0.38672,0.28125 0.38281,0.3125 0.38672,0.33594 0.38281,0.36328 0.38282,0.38672 0.38671,0.41797 0.38282,0.44531 0.38672,0.46875 0.38281,0.49609 0.38281,0.52344 0.38672,0.55078 0.38281,0.57422 0.38672,0.59766 0.38281,0.625 0.38282,0.64844 0.38671,0.67578 0.38282,0.69922 0.38672,0.72265 0.38281,0.7461 0.38672,0.76953 0.38281,0.79297 0.38281,0.8164 0.38672,0.83985 0.38281,0.85937 0.38672,0.88281 0.38281,0.90625 0.38282,0.92578 0.38672,0.94532 0.38281,0.96875 0.38672,0.98437 0.38281,1.00781 0.38281,1.02344 0.38672,1.04688 0.38281,1.0625 0.38672,1.08203 0.38281,1.09765 0.38282,1.11719 0.38672,1.13281 0.38281,1.15235 0.38672,1.16406 0.38281,1.18359 0.38281,1.19532 0.38672,1.21093 0.38281,1.22657 0.38672,1.23828 0.38281,1.2539 0.38282,1.26563 0.38672,1.27734 0.38281,1.28907 0.38672,1.30468 0.38281,1.3125 0.38281,1.32422 0.38672,1.33203 0.38281,1.34375 0.38672,1.35157 0.38281,1.36328 0.38282,1.37109 0.38672,1.37891 0.38281,1.38281 0.38672,1.39453 0.38281,1.39844 0.38281,1.40625 0.38672,1.41015 0.38281,1.41797 0.38672,1.41797 0.38281,1.42578 0.38282,1.42969 0.38672,1.43359 0.38281,1.4336 0.38672,1.4414 0.76562,2.88282 0.38672,1.4414 0.38281,1.44532 0.38672,1.44531 0.76563,2.89062 0.38672,1.44532 0.38281,1.44531 0.38672,1.4414 0.76562,2.875 0.38672,1.4375 0.38281,1.4336 0.38672,1.42578 0.38281,1.42578 0.38282,1.42188 0.38672,1.41796 0.38281,1.41407 0.38672,1.40625 0.38281,1.40234 0.38281,1.39844 0.38672,1.39062 0.38281,1.38282 0.38672,1.3789 0.38281,1.3711 0.38282,1.36328 0.38672,1.35547 0.38281,1.35156 0.38672,1.33984 0.38281,1.33594 0.38672,1.32422 0.38281,1.3164 0.38281,1.30469 0.38672,1.30078 0.38281,1.28907 0.38672,1.27734 0.38282,1.26953 0.38281,1.26172 0.38672,1.25 0.38281,1.23828 0.38672,1.23047 0.38281,1.21875 0.38281,1.20703 0.38672,1.19922 0.38281,1.18359 0.38672,1.17578 0.38282,1.16407 0.38281,1.15234 0.38672,1.14063 0.38281,1.1289 0.38672,1.11719 0.38281,1.10547 0.38281,1.09375 0.38672,1.08203 0.38281,1.06641 0.38672,1.05859 0.38282,1.04687 0.38281,1.03125 0.38672,1.01954 0.38281,1.00781 0.38672,0.99609 0.38281,0.98438 0.38281,0.96875 0.38672,0.96093 0.38281,0.94532 0.38672,0.93359 0.38282,0.92188 0.38281,0.90625 0.38672,0.89453 0.38281,0.88281 0.38672,0.87109 0.38281,0.85938 0.38281,0.84765 0.38672,0.83204 0.38281,0.82031 0.38672,0.80859 0.38282,0.79688 0.38281,0.78515 0.38672,0.76953 0.38281,0.76172 0.38672,0.7461 0.38281,0.73437 0.38281,0.72656 0.38672,0.71094 0.38281,0.69922 0.38672,0.6875 0.38282,0.67578 0.38281,0.66797 0.38672,0.65234 0.38281,0.64063 0.38672,0.63281 0.38281,0.61719 0.38281,0.60937 0.38672,0.59766 0.38281,0.58594 0.38672,0.57422 0.38282,0.5664 0.38281,0.55469 0.38672,0.54297 0.38281,0.53125 0.38672,0.52344 0.38281,0.51172 0.38281,0.5039 0.38672,0.49219 0.38281,0.48437 0.38672,0.47266 0.38282,0.46094 0.38281,0.45703 0.38672,0.44141 0.38281,0.4375 0.38672,0.42578 0.38281,0.41797 0.38672,0.40625 0.38281,0.40234 0.38281,0.39062 0.38672,0.38282 0.38282,0.37109 0.38671,0.36719 0.38282,0.35937 0.38281,0.34766 0.38672,0.34375 0.38281,0.33203 0.38672,0.32813 0.38281,0.3164 0.38281,0.3125 0.38672,0.30469 0.38282,0.29687 0.38671,0.28907 0.38282,0.28125 0.38281,0.27734 0.38672,0.26953 0.38281,0.26563 0.38672,0.2539 0.38281,0.25 0.38281,0.2461 0.38672,0.23828 0.38282,0.23047 0.38671,0.22656 0.38282,0.21875 0.38281,0.21484 0.38672,0.21094 0.38281,0.20313 0.38672,0.19921 0.38281,0.19141 0.38281,0.1875 0.38672,0.18359 0.38282,0.17969 0.38671,0.17188 0.38282,0.17187 0.38281,0.16406 0.38672,0.16016 0.38281,0.15234 0.38672,0.15235 0.38281,0.14844 0.38281,0.14062 0.38672,0.14063 0.38282,0.13281 0.38671,0.13281 0.38282,0.12891 0.38281,0.12109 0.38672,0.12109 0.38281,0.11719 0.38672,0.11328 0.38281,0.10938 0.38281,0.10547 0.38672,0.10547 0.38282,0.10156 0.38671,0.0976 0.38282,0.0937 0.38281,0.0899 0.38672,0.0898 0.38281,0.0859 0.38672,0.0859 0.76562,0.15625 0.38672,0.0781 0.38282,0.0742 0.38671,0.0703 0.38282,0.0703 0.38281,0.0664 0.38672,0.0664 0.38281,0.0625 0.38672,0.0586 0.76562,0.11719 0.38672,0.0547 0.38282,0.0547 0.38671,0.0508 0.38282,0.0469 0.38281,0.0508 0.38672,0.0469 0.38281,0.043 0.38672,0.043 0.38281,0.043 0.38672,0.043 0.38281,0.0391 0.38282,0.0352 0.38671,0.0391 0.38282,0.0352 0.38672,0.0312 0.38281,0.0352 0.38281,0.0312 0.38672,0.0312 0.38281,0.0273 0.38672,0.0312 0.76563,0.0547 0.38671,0.0234 0.38282,0.0234 0.38672,0.0234 0.76562,0.0469 0.38672,0.0195 0.38281,0.0234 0.38672,0.0195 0.38281,0.0195 0.38282,0.0156 0.38671,0.0195 0.38282,0.0156 0.38672,0.0156 0.76562,0.0312 0.38672,0.0156 0.38281,0.0156 0.38672,0.0117 0.38281,0.0117 0.38282,0.0156 0.38671,0.0117 0.38282,0.0117 0.38672,0.008 0.76562,0.0234 0.38672,0.008 0.38281,0.0117 0.38672,0.008 0.76563,0.0156 0.38671,0.008 0.38282,0.008 0.38672,0.008 0.76562,0.0156 0.38672,0.004 0.38281,0.008 0.38672,0.008 0.76563,0.008 0.38671,0.008 0.38282,0.004 0.38672,0.004 0.38281,0.008 0.38281,0.004 0.38672,0.004 0.38281,0.004 0.38672,0.004 0.76563,0.008 0.38671,0.004 h 0.38282 l 0.38672,0.004 0.76562,0.008 h 0.38672 l 0.38281,0.004 0.38672,0.004 h 0.38281 l 0.38282,0.004 h 0.38671 l 0.38282,0.004 0.38672,0.004 h 0.76562 l 0.38672,0.004 h 0.38281 l 0.38672,0.004 h 0.38281 l 0.38282,0.004 h 0.76953 l 0.38672,0.004 h 1.15234 l 0.38281,0.004 h 1.15625 l 0.38281,0.004 h 1.53907 l 0.38281,0.004 h 2.30469 l 0.38672,0.004 h 3.84375 l 0.38281,0.004 h 3.07422 z m 0,0"
           style="fill:#b88a00;fill-opacity:0.301961;fill-rule:nonzero;stroke:none"
           inkscape:connector-curvature="0" />
        <g
           id="g619"
           clip-rule="nonzero"
           clip-path="url(#clip2-5)">
          <path
             id="path617"
             d="M 304.80078,430.55859 V 59.039062"
             style="fill:none;stroke:#b88a00;stroke-width:3;stroke-linecap:round;stroke-linejoin:round;stroke-miterlimit:10;stroke-dasharray:3, 9;stroke-opacity:0.301961"
             inkscape:connector-curvature="0" />
        </g>
        <path
           id="path621"
           d="m 74.398438,416.80078 h 74.187502 l 0.38281,-0.004 h 5.38281 l 0.38672,-0.004 h 2.30469 l 0.38281,-0.004 h 1.15625 l 0.38281,-0.004 h 0.38282 l 0.38671,-0.004 h 0.76954 l 0.38281,-0.004 h 0.38281 l 0.38672,-0.004 h 0.38281 l 0.38672,-0.004 0.76563,-0.008 h 0.38671 l 0.38282,-0.004 0.38672,-0.004 0.38281,-0.004 0.38281,-0.008 0.38672,-0.004 0.38281,-0.004 0.38672,-0.008 0.38281,-0.004 0.38282,-0.008 0.38671,-0.008 0.38282,-0.008 0.38672,-0.008 0.38281,-0.008 0.38281,-0.0117 0.38672,-0.0117 0.38281,-0.008 0.38672,-0.0156 0.38281,-0.0117 0.38282,-0.0156 0.38671,-0.0117 0.38282,-0.0195 0.38672,-0.0156 0.76562,-0.0391 0.38672,-0.0234 0.38281,-0.0234 0.38672,-0.0234 0.76563,-0.0547 0.38671,-0.0312 0.38282,-0.0312 0.38672,-0.0352 0.76562,-0.0781 0.38672,-0.043 0.38281,-0.0469 0.38672,-0.0469 0.76563,-0.10938 0.38671,-0.0586 0.38282,-0.0625 0.38672,-0.0664 0.38281,-0.0703 0.38281,-0.0781 0.38672,-0.0781 0.38281,-0.0859 0.38672,-0.0937 0.38281,-0.0976 0.38282,-0.10157 0.38671,-0.10937 0.38282,-0.11328 0.38672,-0.125 0.38281,-0.12891 0.38281,-0.13672 0.38672,-0.14844 0.38281,-0.15234 0.38672,-0.16406 0.38281,-0.17188 0.38282,-0.18359 0.38671,-0.19531 0.38282,-0.20313 0.38672,-0.21484 0.38281,-0.22656 0.38672,-0.23829 0.38281,-0.2539 0.38281,-0.26563 0.38672,-0.28125 0.38281,-0.29297 0.38672,-0.3125 0.38281,-0.32421 0.38282,-0.34375 0.38672,-0.36329 0.38281,-0.3789 0.38672,-0.39844 0.38281,-0.41406 0.38281,-0.44141 0.38672,-0.45703 0.38281,-0.48047 0.38672,-0.50781 0.38281,-0.52734 0.38282,-0.55079 0.38672,-0.57812 0.38281,-0.60547 0.38672,-0.63281 0.38281,-0.66016 0.38281,-0.6914 0.38672,-0.71875 0.38281,-0.75 0.38672,-0.78125 0.38281,-0.81641 0.38282,-0.85156 0.38672,-0.88672 0.38281,-0.92188 0.38672,-0.95703 0.38281,-0.99609 0.38281,-1.03516 0.38672,-1.07812 0.38281,-1.11719 0.38672,-1.16016 0.38281,-1.20312 0.38282,-1.25 0.38672,-1.29297 0.38281,-1.33984 0.38672,-1.38672 0.38281,-1.4336 0.38281,-1.48437 0.38672,-1.53516 0.38281,-1.58594 0.38672,-1.64062 0.38281,-1.69141 0.38282,-1.74609 0.38672,-1.79688 0.38281,-1.85546 0.38672,-1.91407 0.38281,-1.96875 0.38281,-2.02343 0.38672,-2.08594 0.38281,-2.14453 0.38672,-2.20313 0.38281,-2.26172 0.38282,-2.32422 0.38672,-2.38281 0.38281,-2.44531 0.38672,-2.50391 0.38281,-2.5664 0.38281,-2.62891 0.38672,-2.69141 0.38281,-2.75 0.38672,-2.8125 0.38281,-2.875 0.38282,-2.93359 0.38672,-2.99609 0.38281,-3.0586 0.38672,-3.11328 0.38281,-3.17578 0.38281,-3.23047 0.38672,-3.28906 0.38281,-3.34766 0.38672,-3.40234 0.38281,-3.45703 0.38282,-3.51172 0.38672,-3.55859 0.38281,-3.61329 0.38672,-3.66406 0.38281,-3.70703 0.38672,-3.75391 0.38281,-3.80078 0.38281,-3.83984 0.38672,-3.88281 0.38281,-3.91797 0.38672,-3.95313 0.38282,-3.98828 0.38281,-4.01953 0.38672,-4.05078 0.38281,-4.07031 0.38672,-4.09766 0.38281,-4.11719 0.38281,-4.13672 0.38672,-4.14843 0.38281,-4.16407 0.38672,-4.16796 0.76563,-8.35157 0.38672,-4.17578 0.38281,-4.17187 0.38672,-4.16407 0.38281,-4.14843 0.38281,-4.13672 0.38672,-4.11719 0.38281,-4.09375 0.38672,-4.07031 0.38282,-4.03516 0.38281,-4.0039 0.38672,-3.96875 0.38281,-3.92579 0.38672,-3.8789 0.38281,-3.83203 0.38281,-3.77735 0.38672,-3.72265 0.38281,-3.66016 0.38672,-3.59766 0.38282,-3.52734 0.38281,-3.45703 0.38672,-3.38281 0.38281,-3.30469 0.38672,-3.22266 0.38281,-3.13281 0.38281,-3.04687 0.38672,-2.95313 0.38281,-2.85937 0.38672,-2.75782 0.38282,-2.65625 0.38281,-2.550778 0.38672,-2.441406 0.38281,-2.332031 0.38672,-2.21875 0.38281,-2.101563 0.38281,-1.984374 0.38672,-1.863282 0.38281,-1.738281 0.38672,-1.617187 0.38282,-1.484376 0.38281,-1.359374 0.38672,-1.226563 0.38281,-1.097656 0.38672,-0.964844 0.38281,-0.828125 0.38281,-0.691406 0.38672,-0.558594 0.38281,-0.421875 0.38672,-0.28125 0.38282,-0.144531 0.38281,-0.0078 0.38672,0.128907 0.38281,0.269531 0.38672,0.40625 0.38281,0.539062 0.38281,0.679688 0.38672,0.8125 0.38281,0.949219 0.38672,1.082031 0.38282,1.214843 0.38281,1.34375 0.38672,1.472657 0.38281,1.601562 0.38672,1.726563 0.38281,1.847656 0.38672,1.96875 0.38281,2.089844 0.38281,2.207031 0.38672,2.320313 0.38282,2.429687 0.38671,2.539062 0.38282,2.64453 0.38281,2.74609 0.38672,2.84766 0.38281,2.94141 0.38672,3.03906 0.38281,3.125 0.38281,3.21094 0.38672,3.29687 0.38282,3.37109 0.38671,3.44922 0.38282,3.52344 0.38281,3.58984 0.38672,3.65625 0.38281,3.71485 0.38672,3.76953 0.38281,3.82812 0.38281,3.875 0.38672,3.91797 0.38282,3.96094 0.38671,4 0.38282,4.03516 0.38281,4.0664 0.38672,4.08985 0.38281,4.11718 0.38672,4.13282 0.38281,4.14843 0.38281,4.16407 0.38672,4.16796 0.38282,4.17579 0.38671,4.17578 0.38282,4.17578 0.38281,4.17187 0.38672,4.16407 0.38281,4.14843 0.38672,4.13672 0.38281,4.1211 0.38281,4.09765 0.38672,4.07813 0.38282,4.05078 0.38671,4.02344 0.38282,3.99218 0.38281,3.95703 0.38672,3.92188 0.38281,3.88672 0.38672,3.84765 0.38281,3.80079 0.38281,3.76171 0.38672,3.71485 0.38282,3.66406 0.38671,3.61719 0.38282,3.57031 0.38281,3.51563 0.38672,3.46093 0.38281,3.41016 0.38672,3.35156 0.38281,3.29688 0.38281,3.23828 0.38672,3.17969 0.38282,3.12109 0.38671,3.0625 0.38282,3.00391 0.38281,2.9414 0.38672,2.88281 0.38281,2.81641 0.38672,2.76172 0.38281,2.69531 0.38281,2.63672 0.38672,2.57031 0.38282,2.51563 0.38671,2.44922 0.38282,2.39062 0.38281,2.32813 0.38672,2.26953 0.38281,2.21094 0.38672,2.14843 0.38281,2.09375 0.38672,2.03125 0.38281,1.97657 0.38282,1.91796 0.38671,1.85938 0.38282,1.80469 0.38672,1.7539 0.38281,1.69532 0.38281,1.64453 0.38672,1.59375 0.38281,1.53906 0.38672,1.49219 0.38281,1.4414 0.38282,1.39063 0.38671,1.34375 0.38282,1.30078 0.38672,1.25 0.38281,1.21094 0.38281,1.16406 0.38672,1.12109 0.38281,1.08203 0.38672,1.03907 0.38281,1 0.38282,0.96484 0.38671,0.92578 0.38282,0.89063 0.38672,0.85156 0.38281,0.82031 0.38281,0.78516 0.38672,0.7539 0.38281,0.72657 0.38672,0.6914 0.38281,0.66407 0.38282,0.63281 0.38671,0.60937 0.38282,0.58203 0.38672,0.55469 0.38281,0.53125 0.38281,0.50781 0.38672,0.48438 0.38281,0.46094 0.38672,0.4375 0.38281,0.42187 0.38282,0.39844 0.38671,0.38281 0.38282,0.36328 0.38672,0.34375 0.38281,0.32813 0.38281,0.3125 0.38672,0.29687 0.38281,0.28125 0.38672,0.26953 0.38281,0.25391 0.38282,0.23828 0.38671,0.23047 0.38282,0.21484 0.38672,0.20704 0.38281,0.1914 0.38281,0.1875 0.38672,0.17188 0.38281,0.16406 0.38672,0.15625 0.38281,0.14844 0.38282,0.13672 0.38671,0.13281 0.38282,0.12109 0.38672,0.11719 0.38281,0.10937 0.38281,0.10547 0.38672,0.0977 0.38281,0.0898 0.38672,0.0859 0.38281,0.082 0.38282,0.0781 0.38671,0.0703 0.38282,0.0664 0.38672,0.0625 0.38281,0.0625 0.38281,0.0547 0.38672,0.0508 0.38281,0.0508 0.38672,0.0469 0.38281,0.043 0.38282,0.0391 0.38671,0.0391 0.38282,0.0352 0.38672,0.0312 0.38281,0.0312 0.38672,0.0273 0.76562,0.0547 0.38672,0.0234 0.38281,0.0195 0.38672,0.0234 0.38281,0.0156 0.38282,0.0195 0.38672,0.0156 0.38281,0.0156 0.38672,0.0156 0.76562,0.0234 0.38672,0.0117 0.38281,0.0117 0.38672,0.008 0.38281,0.0117 0.38282,0.008 0.38672,0.008 0.38281,0.008 0.38672,0.008 0.38281,0.004 0.38281,0.008 0.38672,0.004 0.38281,0.004 0.38672,0.004 0.76563,0.008 0.38672,0.004 0.38281,0.004 0.38672,0.004 0.38281,0.004 h 0.38281 l 0.38672,0.004 0.38281,0.004 h 0.38672 l 0.38281,0.004 h 0.76954 l 0.38281,0.004 h 0.76953 l 0.38281,0.004 h 1.15625 l 0.38281,0.004 h 1.92188 l 0.38281,0.004 h 5.38281 l 0.38282,0.004 h 116.46875 z m 0,0"
           style="fill:#0099de;fill-opacity:0.8;fill-rule:nonzero;stroke:none"
           inkscape:connector-curvature="0" />
        <path
           id="path623"
           d="m 74.398438,416.80078 h 80.722652 l 0.38282,-0.004 h 6.92187 l 0.38281,-0.004 h 2.30469 l 0.38672,-0.004 h 1.53516 l 0.38671,-0.004 h 0.76954 l 0.38281,-0.004 h 0.76953 l 0.38281,-0.004 h 0.76953 l 0.38282,-0.004 h 0.38671 l 0.38282,-0.004 0.38672,-0.004 h 0.38281 l 0.38281,-0.004 h 0.38672 l 0.38281,-0.004 0.38672,-0.004 0.76563,-0.008 0.38671,-0.004 0.38282,-0.004 0.38672,-0.004 0.76562,-0.008 0.38672,-0.008 0.38281,-0.004 0.38672,-0.008 0.38281,-0.004 0.38282,-0.008 0.38671,-0.008 0.38282,-0.008 0.38672,-0.008 0.76562,-0.0156 0.38672,-0.0117 0.38281,-0.0117 0.38672,-0.008 0.38281,-0.0117 0.38282,-0.0156 0.38671,-0.0117 0.38282,-0.0117 0.38672,-0.0156 0.76562,-0.0312 0.38672,-0.0195 0.38281,-0.0195 0.38672,-0.0195 0.38281,-0.0195 0.38282,-0.0234 0.38671,-0.0234 0.38282,-0.0234 0.38672,-0.0274 0.38281,-0.0273 0.38672,-0.0274 0.38281,-0.0312 0.38281,-0.0351 0.38672,-0.0312 0.38281,-0.0391 0.38672,-0.0352 0.76563,-0.0859 0.38672,-0.043 0.38281,-0.0469 0.38672,-0.0508 0.38281,-0.0508 0.38281,-0.0547 0.38672,-0.0586 0.38281,-0.0625 0.38672,-0.0625 0.76563,-0.14062 0.38672,-0.0742 0.38281,-0.0781 0.38672,-0.082 0.38281,-0.0859 0.38281,-0.0899 0.38672,-0.0976 0.38281,-0.0977 0.38672,-0.10547 0.38281,-0.10937 0.38282,-0.11328 0.38672,-0.1211 0.38281,-0.1289 0.38672,-0.12891 0.38281,-0.14063 0.38281,-0.14453 0.38672,-0.15234 0.38281,-0.15625 0.38672,-0.16406 0.38281,-0.17578 0.38282,-0.17969 0.38672,-0.1875 0.38281,-0.19922 0.38672,-0.20313 0.38281,-0.21484 0.38281,-0.22266 0.38672,-0.23437 0.38281,-0.24219 0.38672,-0.2539 0.38281,-0.26563 0.38282,-0.27344 0.38672,-0.28515 0.38281,-0.30078 0.38672,-0.3086 0.38281,-0.32422 0.38281,-0.33203 0.38672,-0.35156 0.38281,-0.35938 0.38672,-0.3789 0.38281,-0.39063 0.38282,-0.40625 0.38672,-0.42187 0.38281,-0.4336 0.38672,-0.45312 0.38281,-0.47266 0.38281,-0.48437 0.38672,-0.50781 0.38281,-0.51954 0.38672,-0.54296 0.38281,-0.5586 0.38282,-0.58203 0.38672,-0.60156 0.38281,-0.61719 0.38672,-0.64453 0.38281,-0.66016 0.38281,-0.6875 0.38672,-0.70703 0.38281,-0.73047 0.38672,-0.7539 0.38281,-0.77735 0.38282,-0.80468 0.38672,-0.82422 0.38281,-0.85547 0.38672,-0.87891 0.38281,-0.90234 0.38672,-0.9336 0.38281,-0.96093 0.38281,-0.98828 0.38672,-1.01563 0.38281,-1.04297 0.38672,-1.07422 0.38282,-1.10547 0.38281,-1.13281 0.38672,-1.16406 0.38281,-1.19531 0.38672,-1.23047 0.38281,-1.25781 0.38281,-1.28907 0.38672,-1.32422 0.38281,-1.35546 0.38672,-1.39063 0.38282,-1.42187 0.38281,-1.45704 0.38672,-1.49218 0.38281,-1.52735 0.38672,-1.55859 0.38281,-1.59375 0.38281,-1.62891 0.38672,-1.66797 0.38281,-1.69921 0.38672,-1.73438 0.38282,-1.77344 0.38281,-1.80468 0.38672,-1.84375 0.38281,-1.87891 0.38672,-1.91016 0.38281,-1.94922 0.38281,-1.98437 0.38672,-2.02344 0.38281,-2.05469 0.38672,-2.08984 0.38282,-2.12109 0.38281,-2.16016 0.38672,-2.19531 0.38281,-2.22656 0.38672,-2.26172 0.38281,-2.29297 0.38281,-2.32422 0.38672,-2.35938 0.38281,-2.39062 0.38672,-2.42188 0.38282,-2.45312 0.38281,-2.48047 0.38672,-2.51172 0.38281,-2.53906 0.38672,-2.56641 0.38281,-2.59375 0.38281,-2.62109 0.38672,-2.64453 0.38281,-2.66797 0.38672,-2.69141 0.38282,-2.71484 0.38281,-2.73828 0.38672,-2.75391 0.38281,-2.77734 0.38672,-2.78906 0.38281,-2.8125 0.38281,-2.82422 0.38672,-2.83594 0.38281,-2.85156 0.38672,-2.86328 0.38282,-2.8711 0.38281,-2.88281 0.38672,-2.88672 0.38281,-2.89453 0.38672,-2.89453 0.38281,-2.90235 0.38281,-2.89843 0.38672,-2.90235 0.38281,-2.89843 0.38672,-2.89063 0.38282,-2.89062 0.38281,-2.87891 0.38672,-2.87109 0.38281,-2.85938 0.38672,-2.85156 0.38281,-2.83203 0.38672,-2.81641 0.38281,-2.80078 0.38281,-2.77734 0.38672,-2.75782 0.38282,-2.73437 0.38671,-2.70703 0.38282,-2.6836 0.38281,-2.65234 0.38672,-2.62109 0.38281,-2.58594 0.38672,-2.55469 0.38281,-2.51953 0.38281,-2.48047 0.38672,-2.4375 0.38282,-2.39844 0.38671,-2.35547 0.38282,-2.30859 0.38281,-2.26172 0.38672,-2.21484 0.38281,-2.16406 0.38672,-2.10938 0.38281,-2.05859 0.38281,-2 0.38672,-1.94922 0.38282,-1.88672 0.38671,-1.82813 0.38282,-1.76562 0.38281,-1.70313 0.38672,-1.64062 0.38281,-1.57813 0.38672,-1.50781 0.38281,-1.4414 0.38281,-1.3711 0.38672,-1.30078 0.38282,-1.23437 0.38671,-1.15625 0.38282,-1.08594 0.38281,-1.01563 0.38672,-0.9375 0.38281,-0.85937 0.38672,-0.78906 0.38281,-0.70704 0.38281,-0.63281 0.38672,-0.55469 0.38282,-0.47656 0.38671,-0.39453 0.38282,-0.31641 0.38281,-0.23828 0.38672,-0.16015 0.38281,-0.0781 h 0.38672 l 0.38281,0.082 0.38281,0.16016 0.38672,0.23828 0.38282,0.32031 0.38671,0.39844 0.38282,0.47656 0.38281,0.55469 0.38672,0.63281 0.38281,0.71094 0.38672,0.78906 0.38281,0.86328 0.38281,0.9375 0.38672,1.01563 0.38282,1.08594 0.38671,1.16015 0.38282,1.23438 0.38281,1.30469 0.38672,1.37109 0.38281,1.44531 0.38672,1.50781 0.38281,1.57813 0.38281,1.64062 0.38672,1.70704 0.38282,1.76562 0.38671,1.83203 0.38282,1.88672 0.38281,1.94922 0.38672,2.00391 0.38281,2.05859 0.38672,2.10937 0.38281,2.16407 0.38672,2.21484 0.38281,2.26563 0.38282,2.30859 0.38671,2.35547 0.38282,2.39844 0.38672,2.4414 0.38281,2.48047 0.38281,2.51953 0.38672,2.55469 0.38281,2.58984 0.38672,2.6211 0.38281,2.65234 0.38282,2.68359 0.38671,2.70704 0.38282,2.73437 0.38672,2.75781 0.38281,2.78125 0.38281,2.79688 0.38672,2.82031 0.38281,2.83203 0.38672,2.84766 0.38281,2.85937 0.38282,2.875 0.38671,2.87891 0.38282,2.88672 0.38672,2.89453 0.76562,5.79687 0.38672,2.90235 0.38281,2.89844 0.38672,2.89843 0.38281,2.89453 0.38282,2.88672 0.38671,2.88282 0.38282,2.87109 0.38672,2.86328 0.38281,2.84766 0.38281,2.83984 0.38672,2.82422 0.38281,2.80859 0.38672,2.79297 0.38281,2.77344 0.38282,2.75391 0.38671,2.73828 0.38282,2.71093 0.38672,2.69532 0.38281,2.66797 0.38281,2.64453 0.38672,2.61718 0.38281,2.59375 0.38672,2.56641 0.38281,2.53906 0.38282,2.51172 0.38671,2.48047 0.38282,2.44922 0.38672,2.42187 0.38281,2.39063 0.38281,2.35937 0.38672,2.32422 0.38281,2.29297 0.38672,2.26172 0.38281,2.22656 0.38282,2.19141 0.38671,2.15625 0.38282,2.125 0.38672,2.08984 0.38281,2.05469 0.38281,2.01953 0.38672,1.98438 0.38281,1.94531 0.38672,1.91406 0.38281,1.87891 0.38282,1.83984 0.38671,1.80469 0.38282,1.77344 0.38672,1.73437 0.38281,1.69922 0.38281,1.66406 0.38672,1.62891 0.38281,1.59375 0.38672,1.55859 0.38281,1.52735 0.38282,1.48828 0.38671,1.45703 0.38282,1.42187 0.38672,1.39063 0.38281,1.35547 0.38672,1.32031 0.38281,1.29297 0.38281,1.25781 0.38672,1.22656 0.38281,1.19532 0.38672,1.16406 0.38281,1.13281 0.38282,1.10156 0.38672,1.07422 0.38281,1.04297 0.38672,1.01563 0.38281,0.98828 0.38281,0.96094 0.38672,0.92968 0.38281,0.90625 0.38672,0.87891 0.38281,0.85156 0.38282,0.82813 0.38672,0.80078 0.38281,0.77734 0.38672,0.75391 0.38281,0.73047 0.38281,0.70703 0.38672,0.68359 0.38281,0.66406 0.38672,0.64063 0.38281,0.62109 0.38282,0.59766 0.38672,0.57812 0.38281,0.5625 0.38672,0.53907 0.38281,0.52343 0.38281,0.50391 0.38672,0.48828 0.38281,0.46875 0.38672,0.45313 0.38281,0.4375 0.38282,0.41797 0.38672,0.40625 0.38281,0.39062 0.38672,0.375 0.38281,0.36328 0.38281,0.34766 0.38672,0.33594 0.38281,0.32421 0.38672,0.3086 0.38281,0.29687 0.38282,0.28516 0.38672,0.27734 0.38281,0.26172 0.38672,0.25391 0.38281,0.24219 0.38281,0.23437 0.38672,0.22266 0.38281,0.21484 0.38672,0.20313 0.38281,0.19921 0.38282,0.1875 0.38672,0.17969 0.38281,0.17188 0.38672,0.16797 0.38281,0.15625 0.38281,0.15234 0.38672,0.14453 0.38281,0.13672 0.38672,0.13281 0.38281,0.125 0.38282,0.1211 0.38672,0.11718 0.38281,0.10938 0.38672,0.10156 0.38281,0.10156 0.38281,0.0937 0.38672,0.0899 0.38281,0.0859 0.38672,0.0859 0.38281,0.0781 0.38282,0.0742 0.38672,0.0703 0.38281,0.0664 0.38672,0.0625 0.38281,0.0625 0.38672,0.0586 0.38281,0.0547 0.38281,0.0508 0.38672,0.0508 0.38281,0.0469 0.38672,0.0469 0.38282,0.043 0.38281,0.0391 0.38672,0.0391 0.38281,0.0352 0.38672,0.0351 0.76562,0.0625 0.38672,0.0274 0.38281,0.0273 0.38672,0.0274 0.76563,0.0469 0.38672,0.0234 0.38281,0.0195 0.38672,0.0195 0.76562,0.0391 0.38672,0.0156 0.38281,0.0156 0.38672,0.0156 0.38282,0.0117 0.38281,0.0156 0.38672,0.0117 0.38281,0.0117 0.38672,0.0117 0.38281,0.008 0.38281,0.0117 0.38672,0.008 0.38281,0.008 0.38672,0.008 0.76563,0.0156 0.38672,0.008 0.38281,0.004 0.38672,0.008 0.38281,0.004 0.38281,0.008 0.38672,0.004 0.38281,0.004 0.38672,0.004 0.76563,0.008 0.38672,0.004 0.38281,0.004 0.38672,0.004 0.38281,0.004 h 0.38281 l 0.38672,0.004 h 0.38281 l 0.38672,0.004 0.38282,0.004 h 0.38281 l 0.38672,0.004 h 0.76953 l 0.38281,0.004 h 0.76953 l 0.38281,0.004 h 0.76954 l 0.38281,0.004 h 1.53906 l 0.38281,0.004 h 2.3086 l 0.38281,0.004 h 6.92187 l 0.38282,0.004 h 73.03125 z m 0,0"
           style="fill:#b88a00;fill-opacity:0.8;fill-rule:nonzero;stroke:none"
           inkscape:connector-curvature="0" />
      </g>
      <path
         inkscape:export-ydpi="96"
         inkscape:export-xdpi="96"
         style="opacity:1;fill:#222d32;fill-opacity:1;stroke-width:0.16203"
         d="m 95.29892,109.1512 -78.059319,45.10835 0.03514,90.15522 78.094456,45.04687 78.059323,-45.10784 -0.0351,-90.15522 z m 0.290419,6.89157 71.613201,41.30859 0.032,82.6735 -71.580645,41.3644 -71.613198,-41.30859 -0.03256,-82.67299 z"
         id="path1388"
         inkscape:connector-curvature="0" />
      <g
         style="font-style:normal;font-variant:normal;font-weight:bold;font-stretch:normal;font-size:22.4768px;line-height:1.25;font-family:'M+ 2p';-inkscape-font-specification:'M+ 2p Bold';fill:#222d32;fill-opacity:1;stroke:none;stroke-width:0.56192"
         id="text448"
         aria-label="brglm2">
        <path
           inkscape:connector-curvature="0"
           id="path861"
           style="font-style:normal;font-variant:normal;font-weight:500;font-stretch:normal;font-family:'M+ 1mn';-inkscape-font-specification:'M+ 1mn Medium';fill:#222d32;fill-opacity:1;stroke-width:0.56192"
           d="m 71.379784,241.73284 q 0,3.30409 -1.19127,4.69766 -1.191271,1.37108 -3.753626,1.37108 -2.18025,0 -3.821056,-0.71926 v -16.36311 h 2.472448 v 5.43939 q 1.011456,-0.49449 2.135296,-0.49449 2.112819,0 3.124275,1.41604 1.033933,1.41604 1.033933,4.65269 z m -2.472448,0 q 0,-2.31511 -0.49449,-3.25913 -0.472012,-0.9665 -1.460992,-0.9665 -1.168793,0 -1.865574,0.76421 v 7.48477 q 0.651827,0.2922 1.460992,0.2922 1.19127,0 1.775667,-0.9665 0.584397,-0.9665 0.584397,-3.34905 z" />
        <path
           inkscape:connector-curvature="0"
           id="path863"
           style="font-style:normal;font-variant:normal;font-weight:500;font-stretch:normal;font-family:'M+ 1mn';-inkscape-font-specification:'M+ 1mn Medium';fill:#222d32;fill-opacity:1;stroke-width:0.56192"
           d="m 81.988834,235.66411 v 1.86557 q -2.629786,0 -4.967373,0.65183 l 0.02248,9.3953 H 74.57149 V 236.8329 q 3.551334,-1.16879 7.417344,-1.16879 z" />
        <path
           inkscape:connector-curvature="0"
           id="path865"
           style="font-style:normal;font-variant:normal;font-weight:500;font-stretch:normal;font-family:'M+ 1mn';-inkscape-font-specification:'M+ 1mn Medium';fill:#222d32;fill-opacity:1;stroke-width:0.56192"
           d="m 86.214473,252.74648 v -1.88805 q 2.337587,0 3.573811,-1.01146 1.258701,-1.01146 1.258701,-2.83208 v -0.33715 q -0.921549,0.44954 -1.977959,0.44954 -4.315545,0 -4.315545,-5.73159 0,-3.07932 1.213747,-4.40545 1.213747,-1.32613 3.955917,-1.32613 1.977958,0 3.596288,0.49449 v 10.51914 q 0,2.83208 -1.933005,4.45041 -1.910528,1.61833 -5.371955,1.61833 z m 1.011456,-11.35079 q 0,3.91097 2.135296,3.91097 0.966502,0 1.68576,-0.51697 v -7.14762 q -0.651827,-0.13486 -1.236224,-0.13486 -1.348608,0 -1.977959,0.87659 -0.606873,0.8766 -0.606873,3.01189 z" />
        <path
           inkscape:connector-curvature="0"
           id="path867"
           style="font-style:normal;font-variant:normal;font-weight:500;font-stretch:normal;font-family:'M+ 1mn';-inkscape-font-specification:'M+ 1mn Medium';fill:#222d32;fill-opacity:1;stroke-width:0.56192"
           d="m 101.63356,245.75619 h 3.01189 v 1.82062 h -5.529293 v -14.58744 h -3.011891 v -1.82062 h 5.529294 z" />
        <path
           inkscape:connector-curvature="0"
           id="path869"
           style="font-style:normal;font-variant:normal;font-weight:500;font-stretch:normal;font-family:'M+ 1mn';-inkscape-font-specification:'M+ 1mn Medium';fill:#222d32;fill-opacity:1;stroke-width:0.56192"
           d="m 106.55598,236.51823 q 1.39356,-0.85412 3.16923,-0.85412 1.28117,0 2.00043,0.56192 0.98898,-0.56192 2.22521,-0.56192 1.70823,0 2.31511,0.65183 0.62935,0.62935 0.62935,2.49492 v 8.76595 h -2.27016 v -8.99072 q 0,-0.62935 -0.17982,-0.85412 -0.17981,-0.22476 -0.62935,-0.22476 -0.60687,0 -0.92154,0.31467 v 9.75493 h -2.24768 v -8.99072 q 0,-0.60687 -0.17982,-0.83164 -0.17981,-0.24724 -0.65183,-0.24724 -0.58439,0 -0.89907,0.31467 v 9.75493 h -2.36006 z" />
        <path
           inkscape:connector-curvature="0"
           id="path871"
           style="font-style:normal;font-variant:normal;font-weight:500;font-stretch:normal;font-family:'M+ 1mn';-inkscape-font-specification:'M+ 1mn Medium';fill:#222d32;fill-opacity:1;stroke-width:0.56192"
           d="m 122.91909,230.94398 q 1.933,0 2.94446,1.12384 1.03393,1.10136 1.03393,3.25914 0,2.06786 -1.28118,4.54031 -1.2587,2.47245 -4.09077,5.70911 v 0.045 h 5.48434 v 1.95548 h -8.09165 v -1.95548 q 5.43938,-6.0013 5.43938,-10.18199 0,-1.32613 -0.49449,-1.933 -0.47201,-0.60688 -1.46099,-0.60688 -1.50594,0 -3.4839,1.32613 v -2.11282 q 1.79814,-1.16879 4.00087,-1.16879 z" />
      </g>
    </g>
  </g>
</svg>
